<svg width="656" height="177" viewBox="0 0 656 177" fill="none" xmlns="http://www.w3.org/2000/svg">
<g clip-path="url(#clip0_53_103)">
<path d="M271.805 53.335H280.121V128.935H273.317L224.501 66.943V128.935H216.185V53.335H224.177L271.805 113.923V53.335Z" fill="#240048"/>
<path d="M342.643 112.249C341.166 115.813 339.133 118.928 336.541 121.591C333.949 124.256 330.853 126.362 327.253 127.909C323.652 129.456 319.764 130.231 315.589 130.231C311.412 130.231 307.56 129.456 304.033 127.909C300.504 126.362 297.445 124.274 294.853 121.645C292.261 119.017 290.244 115.939 288.805 112.411C287.364 108.884 286.645 105.14 286.645 101.179C286.645 97.22 287.364 93.457 288.805 89.893C290.244 86.329 292.261 83.216 294.853 80.551C297.445 77.888 300.523 75.782 304.087 74.233C307.651 72.686 311.556 71.911 315.805 71.911C319.98 71.911 323.851 72.686 327.415 74.233C330.979 75.782 334.057 77.869 336.649 80.497C339.241 83.126 341.256 86.204 342.697 89.731C344.137 93.26 344.857 97.004 344.857 100.963C344.857 104.923 344.118 108.685 342.643 112.249ZM334.759 92.613C333.714 89.957 332.256 87.64 330.385 85.666C328.512 83.691 326.316 82.129 323.797 80.98C321.276 79.831 318.541 79.256 315.589 79.256C312.565 79.256 309.792 79.813 307.273 80.927C304.752 82.041 302.611 83.585 300.847 85.559C299.082 87.533 297.696 89.832 296.689 92.454C295.68 95.077 295.177 97.895 295.177 100.91C295.177 103.927 295.698 106.764 296.743 109.422C297.786 112.08 299.227 114.378 301.063 116.317C302.899 118.256 305.076 119.8 307.597 120.949C310.117 122.098 312.852 122.672 315.805 122.672C318.829 122.672 321.6 122.117 324.121 121.003C326.641 119.889 328.801 118.364 330.601 116.423C332.4 114.484 333.804 112.204 334.813 109.582C335.82 106.962 336.325 104.143 336.325 101.126C336.325 98.109 335.802 95.271 334.759 92.613Z" fill="#240048"/>
<path d="M389.858 73.099H398.822L374.522 129.367H367.178L342.986 73.099H352.166L370.958 119.431L389.858 73.099Z" fill="#240048"/>
<path d="M487.848 108.199H487.416L459.876 67.807V128.935H451.56V53.335H460.2L487.74 94.591L515.28 53.335H523.92V128.935H515.388V67.699L487.848 108.199Z" fill="#FF6604"/>
<path d="M640.017 113.275C638.505 116.876 636.507 119.917 634.023 122.401C631.539 124.885 628.694 126.793 625.491 128.125C622.287 129.457 618.992 130.123 615.609 130.123C613.017 130.123 610.641 129.799 608.481 129.151C606.321 128.503 604.377 127.639 602.649 126.559C600.921 125.479 599.355 124.22 597.951 122.779C596.547 121.339 595.305 119.828 594.225 118.243V146.215H585.909V73.099H594.225V84.331C595.376 82.675 596.655 81.091 598.059 79.579C599.463 78.067 601.029 76.754 602.756 75.637C604.485 74.522 606.41 73.622 608.535 72.937C610.658 72.254 613.017 71.911 615.609 71.911C618.92 71.911 622.178 72.559 625.382 73.855C628.585 75.151 631.447 77.041 633.968 79.525C636.488 82.009 638.504 85.052 640.016 88.651C641.528 92.252 642.284 96.356 642.284 100.963C642.286 105.571 641.529 109.675 640.017 113.275ZM632.188 92.153C631.143 89.502 629.721 87.227 627.922 85.329C626.121 83.431 624.034 81.979 621.658 80.977C619.282 79.975 616.761 79.472 614.098 79.472C611.506 79.472 609.003 79.992 606.592 81.031C604.178 82.071 602.019 83.52 600.112 85.383C598.203 87.246 596.691 89.502 595.576 92.154C594.459 94.805 593.902 97.741 593.902 100.964C593.902 104.189 594.459 107.144 595.576 109.83C596.692 112.516 598.203 114.791 600.112 116.654C602.019 118.517 604.178 119.967 606.592 121.006C609.003 122.045 611.506 122.563 614.098 122.563C616.761 122.563 619.299 122.08 621.712 121.113C624.123 120.146 626.211 118.749 627.976 116.921C629.74 115.095 631.144 112.838 632.188 110.151C633.23 107.464 633.754 104.439 633.754 101.07C633.753 97.777 633.23 94.803 632.188 92.153Z" fill="#FF6604"/>
<path d="M437.088 78.013C432.984 74.233 427.115 72.343 419.484 72.343C415.38 72.343 411.743 72.758 408.576 73.585C407.611 73.837 406.651 74.127 405.693 74.436L401.659 83.778L401.664 83.791C404.256 82.568 406.902 81.577 409.602 80.821C412.302 80.065 415.307 79.687 418.62 79.687C423.875 79.687 427.962 80.966 430.878 83.521C433.794 86.078 435.252 89.876 435.252 94.915V96.859C432.731 96.14 430.139 95.563 427.476 95.131C424.811 94.699 421.679 94.483 418.08 94.483C414.551 94.483 411.33 94.88 408.414 95.671C405.498 96.464 402.977 97.615 400.854 99.127C398.729 100.639 397.091 102.529 395.94 104.797C394.787 107.065 394.212 109.676 394.212 112.627C394.212 115.58 394.806 118.135 395.994 120.295C397.182 122.455 398.765 124.274 400.746 125.749C402.726 127.226 404.958 128.324 407.442 129.043C409.926 129.762 412.464 130.123 415.056 130.123C420.024 130.123 424.144 129.151 427.422 127.207C430.698 125.263 433.308 123.032 435.252 120.511V128.935H443.244V94.807C443.244 87.392 441.192 81.793 437.088 78.013ZM435.36 108.415C435.36 110.648 434.875 112.681 433.907 114.517C432.938 116.353 431.611 117.938 429.924 119.269C428.236 120.602 426.264 121.645 424.003 122.401C421.741 123.157 419.32 123.535 416.738 123.535C414.872 123.535 413.095 123.284 411.409 122.779C409.721 122.276 408.233 121.537 406.942 120.565C405.649 119.593 404.626 118.424 403.874 117.055C403.12 115.688 402.743 114.104 402.743 112.303C402.743 108.704 404.142 105.86 406.942 103.771C409.74 101.684 413.759 100.639 418.997 100.639C422.442 100.639 425.509 100.892 428.201 101.395C430.891 101.899 433.277 102.439 435.359 103.015L435.36 108.415Z" fill="#240048"/>
<path d="M572.82 78.013C568.716 74.233 562.847 72.343 555.216 72.343C551.112 72.343 547.475 72.758 544.308 73.585C543.343 73.837 542.383 74.127 541.425 74.436L537.391 83.778L537.396 83.791C539.988 82.568 542.634 81.577 545.334 80.821C548.034 80.065 551.039 79.687 554.352 79.687C559.607 79.687 563.694 80.966 566.61 83.521C569.526 86.078 570.984 89.876 570.984 94.915V96.859C568.463 96.14 565.871 95.563 563.208 95.131C560.543 94.699 557.411 94.483 553.812 94.483C550.283 94.483 547.062 94.88 544.146 95.671C541.23 96.464 538.709 97.615 536.586 99.127C534.461 100.639 532.823 102.529 531.672 104.797C530.519 107.065 529.944 109.676 529.944 112.627C529.944 115.58 530.538 118.135 531.726 120.295C532.914 122.455 534.497 124.274 536.478 125.749C538.458 127.226 540.69 128.324 543.174 129.043C545.658 129.762 548.196 130.123 550.788 130.123C555.756 130.123 559.877 129.151 563.154 127.207C566.43 125.263 569.04 123.032 570.984 120.511V128.935H578.976V94.807C578.976 87.392 576.924 81.793 572.82 78.013ZM571.092 108.415C571.092 110.648 570.607 112.681 569.639 114.517C568.67 116.353 567.343 117.938 565.656 119.269C563.968 120.602 561.996 121.645 559.735 122.401C557.473 123.157 555.052 123.535 552.47 123.535C550.604 123.535 548.827 123.284 547.141 122.779C545.453 122.276 543.965 121.537 542.674 120.565C541.381 119.593 540.358 118.424 539.606 117.055C538.852 115.688 538.475 114.104 538.475 112.303C538.475 108.704 539.874 105.86 542.674 103.771C545.472 101.684 549.491 100.639 554.729 100.639C558.174 100.639 561.241 100.892 563.933 101.395C566.623 101.899 569.009 102.439 571.091 103.015L571.092 108.415Z" fill="#FF6604"/>
<path opacity="0.6" d="M108.733 162.927C100.011 171.977 88.9535 176.499 75.5505 176.499C72.8665 176.499 70.6795 176.499 69.0155 176.499C67.3355 176.499 65.1505 176.155 62.4805 175.495V51.277C62.4805 35.19 66.8475 22.622 75.5505 13.572C84.2705 4.522 95.3305 0 108.733 0C111.417 0 113.602 0 115.268 0C116.948 0 119.13 0.344 121.803 1.004V125.222C121.803 141.309 117.433 153.877 108.733 162.927Z" fill="#FF6502"/>
<path opacity="0.6" d="M26.246 127.105C14.944 121.606 7.226 112.487 3.084 99.741C2.255 97.189 1.579 95.108 1.065 93.526C0.546 91.928 0.197 89.744 0 87L118.139 48.614C133.438 43.643 146.741 43.912 158.037 49.393C169.338 54.889 177.057 64.011 181.199 76.757C182.028 79.309 182.703 81.387 183.218 82.972C183.737 84.57 184.085 86.751 184.283 89.497L66.144 127.884C50.845 132.855 37.541 132.583 26.246 127.105Z" fill="#FF6502"/>
<path opacity="0.6" d="M34.8245 37.586C36.5615 25.138 42.8495 14.98 53.6925 7.10199C55.8635 5.52399 57.6334 4.23899 58.9795 3.26099C60.3384 2.27299 62.3085 1.26699 64.8565 0.231995L137.87 100.727C147.326 113.741 151.18 126.476 149.458 138.913C147.723 151.36 141.433 161.519 130.59 169.397C128.419 170.975 126.651 172.259 125.303 173.238C123.944 174.226 121.976 175.23 119.426 176.267L46.4134 75.772C36.9574 62.758 33.1055 50.022 34.8245 37.586Z" fill="#FF6502"/>
<path opacity="0.6" d="M122.613 18.082C134.989 15.888 146.592 18.728 157.436 26.606C159.607 28.184 161.377 29.469 162.723 30.447C164.082 31.435 165.648 32.997 167.42 35.1L94.4063 135.595C84.9503 148.61 74.0303 156.211 61.6703 158.417C49.2963 160.613 37.6913 157.771 26.8473 149.893C24.6763 148.315 22.9083 147.031 21.5603 146.052C20.2013 145.064 18.6373 143.504 16.8633 141.399L89.8773 40.903C99.3323 27.889 110.255 20.289 122.613 18.082Z" fill="#FF6502"/>
<path opacity="0.6" d="M168.291 95.547C174.202 106.639 175.086 118.553 170.945 131.299C170.116 133.851 169.44 135.932 168.926 137.514C168.407 139.112 167.405 141.083 165.952 143.419L47.8119 105.034C32.5129 100.063 21.9089 92.026 15.9919 80.952C10.0799 69.862 9.19687 57.946 13.3379 45.2C14.1669 42.648 14.8419 40.57 15.3569 38.985C15.8759 37.387 16.8769 35.418 18.3309 33.08L136.47 71.465C151.77 76.436 162.373 84.475 168.291 95.547Z" fill="#FF6502"/>
<path d="M121.803 78.612L110.473 63.018L92.1415 57.062L73.8105 63.018L62.4805 78.612V97.887L73.8105 113.481L92.1415 119.437L110.473 113.481L121.803 97.887V78.612Z" fill="#FF6502"/>
</g>
<defs>
<clipPath id="clip0_53_103">
<rect width="655.673" height="176.466" fill="white"/>
</clipPath>
</defs>
</svg>
